<?xml version="1.0" standalone="no"?><!DOCTYPE svg PUBLIC "-//W3C//DTD SVG 1.1//EN" "http://www.w3.org/Graphics/SVG/1.1/DTD/svg11.dtd"><svg t="1645684741545" class="icon" viewBox="0 0 1024 1024" version="1.1" xmlns="http://www.w3.org/2000/svg" p-id="4588" xmlns:xlink="http://www.w3.org/1999/xlink" width="128" height="128"><defs><style type="text/css"></style></defs><path d="M912.1 905.1H111.9c-15.1 0-27.4 12.3-27.4 27.4 0 15.1 12.3 27.4 27.4 27.4H912c15.1 0 27.4-12.3 27.4-27.4 0.1-15.1-12.2-27.4-27.3-27.4zM247.3 699.7h529.3c48.5 0 87.9 39.5 87.9 87.9 0 8-6.7 14.8-14.8 14.8H174.2c-8 0-14.8-6.8-14.8-14.8 0-48.5 39.5-87.9 87.9-87.9z m187.8-233.6c23.8 9.5 49.8 14.7 76.9 14.7 27.2 0 53.1-5.2 77-14.7l56.7 178.8H378.3l56.8-178.8z m-76.7-193.7c0-84.7 68.9-153.6 153.6-153.6s153.6 68.9 153.6 153.6c0 84.7-68.9 153.6-153.6 153.6s-153.6-68.9-153.6-153.6zM174.2 857.2h675.6c38.4 0 69.6-31.2 69.6-69.6 0-78.7-64.1-142.8-142.8-142.8h-73.4l-65.5-206.3c50.2-38.1 82.7-98.4 82.7-166.1C720.4 157.5 626.9 64 512 64s-208.4 93.5-208.4 208.4c0 67.7 32.5 128 82.7 166.1l-65.5 206.3h-73.5c-78.7 0-142.7 64.1-142.7 142.8 0 38.4 31.2 69.6 69.6 69.6z" fill="#959DAD" p-id="4589"></path></svg>