<?xml version="1.0" standalone="no"?><!DOCTYPE svg PUBLIC "-//W3C//DTD SVG 1.1//EN" "http://www.w3.org/Graphics/SVG/1.1/DTD/svg11.dtd"><svg t="1646631461913" class="icon" viewBox="0 0 1424 1024" version="1.1" xmlns="http://www.w3.org/2000/svg" p-id="8863" xmlns:xlink="http://www.w3.org/1999/xlink" width="178" height="128"><defs><style type="text/css"></style></defs><path d="M748.855652 950.717217a34.014609 34.014609 0 1 0 0 67.895653H68.118261c-37.62087 0-68.118261-30.408348-68.118261-67.895653V67.895652C0 30.408348 30.497391 0 68.118261 0h1123.283478a68.162783 68.162783 0 0 1 68.118261 67.895652v372.513391l-68.118261-39.17913V101.821217a34.014609 34.014609 0 0 0-34.014609-33.970087H102.13287a34.014609 34.014609 0 0 0-34.059131 33.970087V916.702609c0 18.788174 15.226435 33.970087 34.059131 33.970087H748.855652z m516.006957-420.552347v13.089391-13.089391z m0 403.901217v16.65113-16.65113zM1191.401739 1024h-179.155478 179.2zM238.32487 339.522783h408.486956a34.014609 34.014609 0 1 1 0 67.940174H238.280348a34.014609 34.014609 0 1 1 0-67.940174z m0 271.671652h306.354087a34.014609 34.014609 0 1 1 0 67.895652h-306.309566a34.014609 34.014609 0 1 1 0-67.895652z m0 169.761391h306.354087a34.014609 34.014609 0 1 1 0 67.895652h-306.309566a34.014609 34.014609 0 1 1 0-67.895652z m0-611.194435h612.752695a34.014609 34.014609 0 1 1 0 67.940174H238.280348a34.014609 34.014609 0 1 1 0-67.940174zM1106.365217 643.33913l305.730783 176.038957a25.110261 25.110261 0 1 1-25.199304 43.586783l-305.775305-176.083479-41.583304 71.902609c-18.788174 32.50087-60.460522 43.631304-93.005913 24.84313l-100.396522-57.87826a67.940174 67.940174 0 0 1-24.932174-92.738783l108.365913-187.347478a68.162783 68.162783 0 0 1 93.050435-24.843131l100.396522 57.878261c32.589913 18.743652 43.720348 60.282435 24.932174 92.738783l-41.583305 71.902608z m-126.753391-334.35826l262.054957 150.928695a25.154783 25.154783 0 1 1-25.199305 43.542261l-262.054956-150.928696a25.110261 25.110261 0 1 1 25.199304-43.586782z m-226.971826 392.058434l262.054957 150.928696a25.154783 25.154783 0 1 1-25.199305 43.542261l-262.099478-150.928696a25.154783 25.154783 0 1 1 25.243826-43.542261z m64.333913 249.677913h374.427826a34.014609 34.014609 0 1 1 0 67.895653h-374.427826a34.014609 34.014609 0 1 1 0-67.895653z" p-id="8864"></path></svg>