<?xml version="1.0" standalone="no"?><!DOCTYPE svg PUBLIC "-//W3C//DTD SVG 1.1//EN" "http://www.w3.org/Graphics/SVG/1.1/DTD/svg11.dtd"><svg t="1646631420276" class="icon" viewBox="0 0 1442 1024" version="1.1" xmlns="http://www.w3.org/2000/svg" p-id="8713" xmlns:xlink="http://www.w3.org/1999/xlink" width="180.25" height="128"><defs><style type="text/css"></style></defs><path d="M938.29988341 349.83224367c0-128.73110564-103.89245104-233.34005617-232.14588985-233.34005617S474.00810372 220.8623046 474.00810372 349.83224367c0 128.73110564 103.89245104 233.34005617 232.14588984 233.34005615 128.01460616-0.23883341 232.14588984-104.60895052 232.14588985-233.34005615z m-424.1677987 0c0-106.51961632 85.97995938-192.73840834 191.78307544-192.73840912C811.95710963 157.09383455 897.93706901 243.31262735 897.93706901 349.83224367s-85.97995938 192.73840834-191.78307545 192.73840832c-106.04194949-0.23883341-192.02190886-86.45762543-192.02190885-192.73840832z m0 0" p-id="8714"></path><path d="M312.31801346 887.20698898v20.30082352H1120.0519638v-20.30082353c0-181.9909138-186.7675783-344.87516963-403.86697518-344.87517039-13.13582717 0-26.03282092 0.47766607-38.92981468 1.67183316-11.22516137 0.9553329 17.91249167 10.74749453 18.62899116 21.9726559 11.70282744-0.9553329 8.12032926 17.19599218 20.30082352 17.19599218 195.84324045 0 363.50416076 145.92709782 363.50416077 304.27352257l20.3008243-20.3008243H332.38000433l20.30082352 20.3008243c0-107.71378264 67.58980164-206.11306892 176.73658247-261.04471024 10.03099506-5.01549791 14.09116007-17.19599218 9.07566293-27.22698647-5.01549791-10.03099506-17.19599218-14.09116007-26.98815382-9.07566291C389.22231066 651.23976753 312.31801346 763.25254782 312.31801346 887.20698898z m-1e-8-1e-8" p-id="8715"></path><path d="M512.22141892 809.58619227c-12.18049427-0.23883341-22.21148933-10.26982847-21.97265668-22.45032274 0.23883341-12.18049427 10.26982847-22.21148933 22.45032274-21.9726559 12.18049427 0.23883341 22.21148933 10.26982847 21.97265668 22.45032273 0 12.41932769-10.03099506 22.21148933-22.45032274 21.97265591z m0.47766606-33.67548411c-6.44849687 0-11.70282744 5.01549791-11.70282744 11.46399479 0 6.44849687 5.01549791 11.70282744 11.4639948 11.70282743 6.44849687 0 11.70282744-5.01549791 11.70282743-11.46399402 0-6.44849687-5.01549791-11.70282744-11.46399479-11.7028282z m0 0" p-id="8716"></path><path d="M511.9825855 840.3956777c-14.09116007-0.23883341-27.22698724-5.97083082-37.25798229-16.00182588-9.79216241-10.03099506-15.28532639-23.64448906-15.04649298-37.4968157 0.23883341-14.09116007 5.97083082-27.22698724 16.00182587-37.2579823 10.03099506-9.79216241 23.40565565-15.28532639 37.49681572-15.04649297 1.43299897 0 2.62716529 0 4.06016424 0.23883342l102.45945207 1.19416633c5.73199739 0 10.50866189 4.77666449 10.50866113 10.50866188v19.8231567c0 5.97083082-4.77666449 10.74749453-10.74749455 10.7474953l-48.9608105-0.71649948c-3.10483211 0-5.73199739 2.62716529-5.25433055 5.73199662 0.23883341 1.67183238 0.23883341 3.58249818 0.23883341 5.25433133 0 14.09116007-5.73199739 27.46582066-15.76299245 37.25798228-10.03099506 10.50866189-23.64448906 16.00182586-37.73564912 15.76299246z m1.19416632-95.05562153c-23.40565565-0.23883341-42.51231285 18.39015773-42.75114628 41.79581336-0.23883341 23.16682222 18.39015773 42.2734802 41.55697996 42.75114627 23.40565565 0.47766607 42.51231285-18.39015773 42.98997969-41.79581336 0-5.25433057-0.71649949-10.26982847-2.6271653-15.04649298-1.19416632-3.58249818 1.43299897-7.16499636 5.01549716-7.16499636l57.08113975 0.71649949c2.8659987 0 5.49316398-2.38833187 5.49316397-5.25433057v-9.31449556c0-2.8659987-2.38833187-5.25433057-5.25433056-5.25433134l-97.6827868-1.19416554h-0.23883342c-1.43299897-0.23883341-2.62716529-0.23883341-3.58249817-0.23883341z m0 0" p-id="8717"></path><path d="M541.35907195 756.32638411h-4.29899844c-1.67183238 0-3.10483211-1.43299897-3.10483211-3.34366475v-7.40382978l10.7474953 0.23883264v7.40382977c0 1.67183238-1.43299897 3.10483211-3.34366475 3.10483212z m-1.67183315-38.4521486c-2.8659987 0-5.25433057-2.38833187-5.25433056-5.49316398l0.23883342-21.25615643c0-2.8659987 2.38833187-5.25433057 5.49316397-5.25433056 2.8659987 0 5.25433057 2.38833187 5.25433056 5.49316399l-0.23883341 21.25615642c0 2.8659987-2.38833187 5.25433057-5.49316398 5.25433056z m-19.10665721 8.12033002c-2.14949921 2.14949921-5.49316398 1.91066579-7.6426632 0l-14.80765955-15.28532638c-2.14949921-2.14949921-1.91066579-5.49316398 0-7.64266319 2.14949921-2.14949921 5.49316398-1.91066579 7.6426632 0l14.80765955 15.28532638c2.14949921 2.14949921 2.14949921 5.49316398 0 7.64266319z m38.21331519 0.47766607c2.14949921 2.14949921 5.49316398 2.14949921 7.64266319 0l15.28532561-14.80765956c2.14949921-2.14949921 2.14949921-5.49316398 0-7.64266319-2.14949921-2.14949921-5.49316398-2.14949921-7.6426632 0l-15.2853256 14.80765956c-1.91066579 2.14949921-1.91066579 5.49316398 0 7.64266319z m0.23883342-10.50866189" p-id="8718"></path></svg>