<?xml version="1.0" standalone="no"?><!DOCTYPE svg PUBLIC "-//W3C//DTD SVG 1.1//EN" "http://www.w3.org/Graphics/SVG/1.1/DTD/svg11.dtd"><svg t="1645684950651" class="icon" viewBox="0 0 1024 1024" version="1.1" xmlns="http://www.w3.org/2000/svg" p-id="7330" xmlns:xlink="http://www.w3.org/1999/xlink" width="128" height="128"><defs><style type="text/css"></style></defs><path d="M887.466667 640c-38.4 0-68.266667-29.866667-68.266667-66.133333s29.866667-66.133333 68.266667-66.133334 68.266667 29.866667 68.266666 66.133334c-2.133333 36.266667-32 66.133333-68.266666 66.133333z m0-100.266667c-19.2 0-34.133333 14.933333-34.133334 34.133334 0 19.2 14.933333 34.133333 34.133334 34.133333 19.2 0 34.133333-14.933333 34.133333-34.133333s-17.066667-34.133333-34.133333-34.133334z m-83.2 149.333334c0-85.333333-32-164.266667-93.866667-224l-202.666667-198.4c-6.4-6.4-17.066667-6.4-23.466666 0L448 300.8 422.4 277.333333l36.266667-36.266666c6.4-6.4 6.4-17.066667 0-23.466667L256 19.2c-6.4-6.4-17.066667-6.4-23.466667 0L136.533333 115.2c-6.4 4.266667-6.4 10.666667-4.266666 17.066667l147.2 311.466666c-8.533333 6.4-17.066667 14.933333-25.6 23.466667-61.866667 59.733333-96 140.8-96 224 0 85.333333 32 164.266667 93.866666 224 59.733333 59.733333 140.8 91.733333 228.266667 91.733333 85.333333 0 168.533333-34.133333 228.266667-93.866666 61.866667-59.733333 96-140.8 96-224zM409.6 618.666667c40.533333-38.4 104.533333-40.533333 145.066667 0 40.533333 38.4 38.4 102.4 0 140.8-40.533333 38.4-104.533333 40.533333-145.066667 0-40.533333-36.266667-40.533333-100.266667 0-140.8z m142.933333 309.333333c-14.933333 6.4-151.466667 40.533333-251.733333-61.866667-6.4-6.4-6.4-17.066667 0-23.466666 6.4-6.4 17.066667-6.4 23.466667 0 121.6 78.933333 187.733333 57.6 219.733333 53.333333 8.533333-2.133333 19.2 2.133333 21.333333 10.666667 2.133333 10.666667-4.266667 19.2-12.8 21.333333z m55.466667-23.466667c-19.2 10.666667-27.733333-14.933333-23.466667-6.4-10.666667-19.2 21.333333-32 17.066667-29.866666 8.533333-4.266667 19.2-2.133333 23.466667 4.266666 12.8 21.333333-19.2 34.133333-17.066667 32z" fill="" p-id="7331"></path></svg>