<?xml version="1.0" standalone="no"?><!DOCTYPE svg PUBLIC "-//W3C//DTD SVG 1.1//EN" "http://www.w3.org/Graphics/SVG/1.1/DTD/svg11.dtd"><svg t="1646632433784" class="icon" viewBox="0 0 1024 1024" version="1.1" xmlns="http://www.w3.org/2000/svg" p-id="12646" xmlns:xlink="http://www.w3.org/1999/xlink" width="128" height="128"><defs><style type="text/css"></style></defs><path d="M208.554667 357.831111a30.947556 30.947556 0 0 0-31.232 30.72c0 8.021333 3.242667 15.872 9.102222 21.617778a31.630222 31.630222 0 0 0 22.129778 9.045333h534.072889a30.947556 30.947556 0 0 0 31.288888-30.72 30.833778 30.833778 0 0 0-31.175111-30.606222H208.611556l-0.056889-0.056889z" p-id="12647"></path><path d="M643.754667 0c17.180444 0 31.118222 13.653333 31.118222 30.72v30.606222h245.304889c17.237333 0 31.175111 13.767111 31.175111 30.776889v361.813333a30.947556 30.947556 0 0 1-31.288889 30.606223 30.890667 30.890667 0 0 1-31.288889-30.606223V138.012444a15.473778 15.473778 0 0 0-15.587555-15.303111h-198.257778v61.269334a30.947556 30.947556 0 0 1-31.118222 30.72H307.541333a30.947556 30.947556 0 0 1-31.232-30.72V122.709333H78.165333c-8.533333 0-15.587556 6.826667-15.587555 15.36v800.426667a15.587556 15.587556 0 0 0 15.473778 15.36h395.491555c17.294222 0.056889 31.288889 13.653333 31.288889 30.72-0.227556 17.066667-14.222222 30.72-31.288889 30.606222H31.288889a31.004444 31.004444 0 0 1-31.232-30.72V92.103111c0-8.192 3.242667-16.042667 9.102222-21.788444a31.630222 31.630222 0 0 1 22.129778-8.931556h245.191111V30.776889A30.947556 30.947556 0 0 1 307.541333 0z m-47.217778 61.326222h-241.777778a15.815111 15.815111 0 0 0-11.093333 4.437334 14.848 14.848 0 0 0-4.664889 10.808888v61.610667c0.227556 8.533333 7.224889 15.246222 15.758222 15.189333h241.777778a15.644444 15.644444 0 0 0 11.036444-4.380444 15.132444 15.132444 0 0 0 4.721778-10.808889V76.572444a15.587556 15.587556 0 0 0-15.758222-15.246222z" p-id="12648"></path><path d="M401.408 786.716444c17.066667 0.113778 31.118222-13.539556 31.288889-30.606222a30.890667 30.890667 0 0 0-31.288889-30.606222H208.782222a31.118222 31.118222 0 0 0-31.459555 30.606222c0 8.135111 3.299556 15.928889 9.216 21.731556 5.916444 5.688889 13.937778 8.931556 22.243555 8.931555h192.625778v-0.056889zM475.761778 526.961778H208.554667a30.947556 30.947556 0 0 0-31.232 30.72c0 17.009778 13.937778 30.606222 31.232 30.606222h267.207111a30.890667 30.890667 0 0 0 31.118222-30.606222 30.72 30.72 0 0 0-31.118222-30.606222v-0.113778zM788.309333 525.084444c10.467556 0 19.057778 8.362667 19.228445 18.773334v22.641778a27.306667 27.306667 0 0 0 18.375111 24.462222l32.142222 13.084444c10.183111 4.778667 22.186667 3.015111 30.606222-4.437333l16.440889-16.099556a19.456 19.456 0 0 1 27.192889 0l27.249778 26.737778a18.716444 18.716444 0 0 1 0 26.624l-16.440889 16.042667a26.510222 26.510222 0 0 0-4.380444 29.980444l13.141333 31.516445a27.875556 27.875556 0 0 0 24.917333 18.033777h23.153778a18.944 18.944 0 0 1 19.114667 18.887112v37.660444a19.057778 19.057778 0 0 1-19.228445 18.887111h-23.04a27.989333 27.989333 0 0 0-25.031111 18.033778l-13.141333 31.459555a26.737778 26.737778 0 0 0 4.551111 30.037334l16.384 15.985778a18.716444 18.716444 0 0 1 0 26.737777l-27.249778 26.680889a19.569778 19.569778 0 0 1-27.192889 0l-16.327111-16.156444a28.046222 28.046222 0 0 0-30.549333-4.266667l-32.312889 12.913778a27.477333 27.477333 0 0 0-18.375111 24.519111v22.528c0 10.296889-8.533333 18.773333-19.228445 18.773333h-38.4a19.057778 19.057778 0 0 1-19.228444-18.773333v-22.528a27.306667 27.306667 0 0 0-18.375111-24.462222l-32.312889-12.970667a27.875556 27.875556 0 0 0-30.492445 4.266667l-16.384 16.156444a19.569778 19.569778 0 0 1-27.192888 0l-27.249778-26.737778a18.716444 18.716444 0 0 1 0-26.680888l16.327111-15.985778a26.624 26.624 0 0 0 4.551111-30.037334l-13.312-31.516444a27.818667 27.818667 0 0 0-24.917333-18.033778h-22.983111a19.057778 19.057778 0 0 1-19.285334-18.773333v-37.717333c0-10.353778 8.704-18.887111 19.342222-18.887112h22.926223a27.818667 27.818667 0 0 0 24.917333-18.033777l13.368889-31.516445a26.510222 26.510222 0 0 0-4.551111-29.980444l-16.384-16.042667a18.602667 18.602667 0 0 1 0-26.737778l27.249778-26.624a19.569778 19.569778 0 0 1 27.192888 0l16.384 16.099556c8.362667 7.395556 20.366222 9.102222 30.492445 4.437333l32.199111-13.084444a27.306667 27.306667 0 0 0 18.488889-24.462222v-22.584889c0-10.296889 8.647111-18.773333 19.228444-18.773334z m45.454223 130.673778a135.224889 135.224889 0 0 0-132.778667 0 129.877333 129.877333 0 0 0-66.446222 112.753778c0.113778 34.702222 14.108444 67.811556 38.968889 92.046222 24.917333 24.405333 58.709333 38.115556 93.866666 38.115556 35.271111 0 69.006222-13.710222 93.923556-38.115556 24.917333-24.519111 38.855111-57.628444 38.855111-92.046222a129.706667 129.706667 0 0 0-66.389333-112.753778z" p-id="12649"></path></svg>