<?xml version="1.0" standalone="no"?><!DOCTYPE svg PUBLIC "-//W3C//DTD SVG 1.1//EN" "http://www.w3.org/Graphics/SVG/1.1/DTD/svg11.dtd"><svg t="1645154024335" class="icon" viewBox="0 0 1024 1024" version="1.1" xmlns="http://www.w3.org/2000/svg" p-id="5150" xmlns:xlink="http://www.w3.org/1999/xlink" width="200" height="200"><defs><style type="text/css"></style></defs><path d="M849.170732 0c97.404878 0 174.829268 77.42439 174.829268 174.829268v674.341464c0 97.404878-77.42439 174.829268-174.829268 174.829268H174.829268c-97.404878 0-174.829268-77.42439-174.829268-174.829268V174.829268c0-97.404878 77.42439-174.829268 174.829268-174.829268h674.341464z m-182.321952 237.268293H359.64878c-17.482927 0-29.970732 14.985366-32.468292 32.468292V312.195122h-4.995122c-49.95122 9.990244-87.414634 54.946341-87.414634 109.892683 0 57.443902 44.956098 107.395122 102.4 109.892683h4.995122l2.497561 4.995122c24.97561 54.946341 74.926829 94.907317 134.868292 107.395122h7.492683v92.409756h-67.434146c-12.487805 0-24.97561 9.990244-24.97561 24.97561 0 12.487805 9.990244 22.478049 22.478049 24.975609H601.912195c12.487805 0 24.97561-9.990244 24.97561-24.975609 0-12.487805-9.990244-22.478049-22.478049-24.97561H534.478049v-89.912195c67.434146-7.492683 124.878049-52.44878 149.853658-114.887805 54.946341-4.995122 99.902439-52.44878 99.902439-109.892683 0-49.95122-34.965854-92.409756-79.921951-107.395122l-4.995122-2.497561v-44.956098c0-17.482927-14.985366-29.970732-29.970732-32.468292l-2.497561 2.497561z m-167.336585 99.902439c7.492683-12.487805 17.482927-12.487805 24.97561 0l2.497561 2.497561 22.478049 47.453658 47.453658 7.492683h2.497561c14.985366 2.497561 17.482927 14.985366 7.492683 24.97561l-2.497561 2.497561-34.965854 37.463415 7.492683 52.44878v2.497561c2.497561 14.985366-7.492683 22.478049-19.980487 14.985366l-2.497561-2.497561-42.458537-24.97561-42.458537 24.97561h-2.497561c-12.487805 7.492683-19.980488 0-19.980487-14.985366v-2.497561l7.492683-52.44878-37.463415-37.463415c-9.990244-9.990244-7.492683-22.478049 7.492683-24.97561h2.497561l47.453658-7.492683 24.97561-49.951219z m-172.331707 24.975609v102.4c0 4.995122 0 9.990244 2.497561 14.985366-24.97561-7.492683-44.956098-29.970732-44.956098-59.941463 0-24.97561 14.985366-47.453659 37.463415-57.443903h4.995122z m374.634146 4.995122l2.497561 2.497561c19.980488 9.990244 32.468293 29.970732 32.468293 54.946342 0 24.97561-14.985366 47.453659-37.463415 57.443902v-114.887805z" fill="#16c2cb" p-id="5151"></path></svg>