<?xml version="1.0" standalone="no"?><!DOCTYPE svg PUBLIC "-//W3C//DTD SVG 1.1//EN" "http://www.w3.org/Graphics/SVG/1.1/DTD/svg11.dtd"><svg t="1645672636334" class="icon" viewBox="0 0 1024 1024" version="1.1" xmlns="http://www.w3.org/2000/svg" p-id="1944" xmlns:xlink="http://www.w3.org/1999/xlink" width="200" height="200"><defs><style type="text/css"></style></defs><path d="M635.66019 245.467429h156.964572V0h-156.964572v245.467429z m-381.805714 0h157.013334V0h-157.013334v245.467429z m388.096 294.814476h156.964572V379.416381h-157.013334v160.865524z m-194.218666 0H604.647619V379.416381H447.73181v160.865524z m-193.877334 0h157.013334V379.416381h-157.013334v160.865524z m388.096 234.25219h156.964572v-160.865524h-157.013334v160.865524z m-194.218666 0H604.647619v-160.865524H447.73181v160.865524z m-193.877334 0h157.013334v-160.865524h-157.013334v160.865524z" p-id="1945"></path><path d="M454.656 114.736762h114.736762V28.672H454.656z" p-id="1946"></path><path d="M832.658286 28.818286v90.697143c19.163429 2.048 37.059048 10.581333 50.614857 24.283428 15.945143 16.091429 24.966095 37.839238 25.112381 60.464762v623.85981a85.577143 85.577143 0 0 1-85.284572 85.138285H200.070095a85.577143 85.577143 0 0 1-85.235809-85.138285V204.263619a84.699429 84.699429 0 0 1 25.063619-60.464762c13.55581-13.653333 31.451429-22.235429 50.614857-24.234667V28.867048A175.542857 175.542857 0 0 0 24.380952 204.214857v623.85981a176.37181 176.37181 0 0 0 175.689143 175.88419H823.100952a176.37181 176.37181 0 0 0 175.689143-175.88419V204.263619A175.542857 175.542857 0 0 0 832.658286 28.818286" p-id="1947"></path></svg>