<?xml version="1.0" standalone="no"?><!DOCTYPE svg PUBLIC "-//W3C//DTD SVG 1.1//EN" "http://www.w3.org/Graphics/SVG/1.1/DTD/svg11.dtd"><svg t="1645754561862" class="icon" viewBox="0 0 1024 1024" version="1.1" xmlns="http://www.w3.org/2000/svg" p-id="19285" xmlns:xlink="http://www.w3.org/1999/xlink" width="128" height="128"><defs><style type="text/css"></style></defs><path d="M678.7 62.5c17.7 0 32.2 14.5 32.2 33v198.2c0 18.5-14.5 33-32.2 33H549.8v132.1h354.5c17.7 0 32.2 14.5 32.2 33V520c-36.3-18.5-77.3-29-118.4-29-45.9 0-89.4 12.1-126.5 33H549.8v132.1H578c-8.1 20.9-13.7 43.5-16.1 66.1H453.1v132.1H582V852c10.5 24.2 25 46.7 42.7 66.9-3.2 1.6-6.4 1.6-10.5 1.6H420.9c-17.7 0-32.2-15.3-32.2-33V690c0-18.5 14.5-33 32.2-33h64.4V524.9H163.1V657h64.4c17.7 0 32.2 14.5 32.2 33v198.2c0 18.5-14.5 33-32.2 33H34.2c-17.7 0-32.2-15.3-32.2-33V690c0-18.5 14.5-33 32.2-33h64.4V491.9c0-18.5 14.5-33 32.2-33h354.5V326.7H356.5c-17.7 0-32.2-15.3-32.2-33V95.5c0-18.5 14.5-33 32.2-33h322.2zM195.3 723.1H66.4v132.1h128.9V723.1z m451.2-594.6H388.7v132.1h257.8V128.5zM860 748c0 25.8-20.9 46.7-45.9 46.7-25.8 0-46.7-20.9-45.9-46.7 0-25.8 20.9-46.7 45.9-46.7s45.9 21 45.9 46.7m152.2-26.5c-6.4-8.1-16.1-12.9-26.6-13.7l-11.3-0.8v2.4H934c-2.4-6.4-4.8-12.1-7.3-18.5l37.1-37.9c15.3-15.3 15.3-40.3 0-56.4-15.3-15.3-39.5-15.3-54.8 0l-37.9 37.9c-5.6-3.2-11.3-5.6-17.7-8.1v-53.2c0-21.8-16.9-39.5-38.7-39.5-10.5 0-20.1 4-27.4 11.3-7.3 7.3-11.3 17.7-11.3 28.2v52.4c-6.4 2.4-12.1 4.8-17.7 8.1l-37.1-37.9c-7.3-7.3-16.9-11.3-27.4-11.3s-20.1 4-27.4 11.3c-15.3 15.3-15.3 40.3 0 56.4l37.1 37.9c-3.2 5.6-5.6 12.1-7.3 18.5h-52.4c-21.8 0-38.7 17.7-38.7 39.5s17.7 39.5 38.7 39.5H697c2.4 6.4 4.8 12.1 7.3 18.5L667.2 844c-15.3 15.3-15.3 40.3 0 56.4 7.3 7.3 16.9 11.3 27.4 11.3s20.1-4 27.4-11.3l37.1-37.9c5.6 3.2 12.1 5.6 17.7 8.1V922c0 21.8 17.7 39.5 38.7 39.5 21.8 0 38.7-17.7 38.7-39.5v-49.1c6.4-2.4 12.1-4.8 17.7-8.1l37.1 37.9c7.3 7.3 16.9 11.3 27.4 11.3s20.1-4 27.4-11.3c15.3-15.3 15.3-40.3 0-55.6L926 806c3.2-5.6 5.6-12.1 8.1-18.5h51.6c19.3-1.6 34.6-16.9 36.3-37.1 0.7-10.4-2.5-20.9-9.8-28.9" p-id="19286" fill="#dbdbdb"></path></svg>