<?xml version="1.0" standalone="no"?><!DOCTYPE svg PUBLIC "-//W3C//DTD SVG 1.1//EN" "http://www.w3.org/Graphics/SVG/1.1/DTD/svg11.dtd"><svg t="1646822612963" class="icon" viewBox="0 0 1024 1024" version="1.1" xmlns="http://www.w3.org/2000/svg" p-id="20231" xmlns:xlink="http://www.w3.org/1999/xlink" width="128" height="128"><defs><style type="text/css"></style></defs><path d="M774 489.2c0 23.7 21.8 316.4 21.8 380.1 0 44.6-43.8 89.4-283.9 89.4-240 0-283.9-48.8-283.9-89.4 0-40.6 21.8-359 21.8-380.1 0-21.1-174.7-1.2-174.7-44.7 0-110.8 23.9-248 65.5-290.6 37.8-38.7 104.5-68 191.4-84.6-11.5 183.1 77.6 315.1 162.2 419.9h-10.6c-8.7 0-15.7 7-15.7 15.7v146.6c0 8.7 7 15.7 15.7 15.7h55.9c8.7 0 15.7-7 15.7-15.7v-95L511.1 601l-42.8-44.7h87.1v-51.4c0-8.7-7-15.7-15.7-15.7h-5.4c84.4-104.6 173.2-236.3 162.3-418.8 77.5 16.3 148.4 44.4 186.6 83.4 43.3 44.3 65.5 180.3 65.5 290.6 0 44.4-174.7 21.1-174.7 44.8z m-259.5-22.1c-36.5-34.9-180.8-229.6-152-400.3 48.8 36 80.9 64.7 149.6 64.7 70.2 0 102.1-31.3 152.8-67.1 0.5 0.1 0.9 0.2 1.4 0.3C696.5 235.8 551.1 432 514.5 467.1z m0 0" p-id="20232"></path></svg>