<?xml version="1.0" standalone="no"?><!DOCTYPE svg PUBLIC "-//W3C//DTD SVG 1.1//EN" "http://www.w3.org/Graphics/SVG/1.1/DTD/svg11.dtd"><svg t="1645684698252" class="icon" viewBox="0 0 1024 1024" version="1.1" xmlns="http://www.w3.org/2000/svg" p-id="2928" xmlns:xlink="http://www.w3.org/1999/xlink" width="128" height="128"><defs><style type="text/css"></style></defs><path d="M156.8 1024c-6.4 0-12.8 0-19.2-3.2-19.2-3.2-35.2-3.2-51.2-12.8-35.2-19.2-60.8-54.4-54.4-99.2 3.2-25.6 16-44.8 28.8-64 9.6-12.8 22.4-25.6 35.2-35.2 3.2-3.2 6.4-6.4 6.4-12.8-3.2-19.2 6.4-38.4 19.2-51.2l163.2-192c70.4-83.2 144-166.4 214.4-249.6l3.2-3.2c35.2 80 96 137.6 179.2 172.8l-3.2 3.2L217.6 841.6c-9.6 6.4-19.2 12.8-28.8 16-12.8 3.2-25.6 3.2-38.4 0-3.2 0-6.4 0-6.4 3.2l-28.8 28.8c-9.6 9.6-12.8 19.2-16 32-3.2 9.6 0 16 6.4 22.4 6.4 9.6 19.2 12.8 32 16 41.6 9.6 80-3.2 118.4-22.4 28.8-16 57.6-38.4 83.2-60.8 32-25.6 60.8-51.2 92.8-73.6 35.2-22.4 70.4-38.4 112-44.8 25.6-3.2 48-3.2 73.6 0 70.4 6.4 131.2 35.2 188.8 70.4 57.6 38.4 105.6 83.2 147.2 134.4 16 19.2 6.4 44.8-19.2 51.2-12.8 3.2-25.6 0-32-9.6-12.8-12.8-22.4-28.8-35.2-41.6-41.6-44.8-86.4-80-140.8-108.8-35.2-16-70.4-28.8-108.8-35.2-51.2-6.4-96 3.2-137.6 28.8-28.8 19.2-57.6 41.6-83.2 64-28.8 25.6-57.6 48-89.6 70.4-32 19.2-67.2 35.2-105.6 41.6H156.8z m0 0M745.6 0c9.6 0 16 3.2 25.6 3.2 35.2 6.4 67.2 16 99.2 35.2 35.2 22.4 64 48 83.2 80 22.4 32 35.2 67.2 38.4 102.4 3.2 32 0 60.8-9.6 89.6-3.2 9.6-9.6 19.2-16 32 0 0-3.2 3.2-6.4 3.2-54.4-9.6-108.8-28.8-153.6-60.8-86.4-54.4-140.8-131.2-166.4-227.2-3.2-9.6-3.2-16-6.4-25.6 0-3.2 0-6.4 3.2-6.4 25.6-16 54.4-22.4 86.4-25.6h22.4z m0 0M905.6 403.2c-9.6 6.4-22.4 9.6-32 16-51.2 16-99.2 16-150.4-3.2-73.6-25.6-124.8-73.6-156.8-140.8-16-35.2-22.4-70.4-19.2-105.6 3.2-28.8 9.6-54.4 25.6-80l3.2-3.2c51.2 160 160 265.6 329.6 316.8z m0 0" p-id="2929"></path></svg>