<?xml version="1.0" standalone="no"?><!DOCTYPE svg PUBLIC "-//W3C//DTD SVG 1.1//EN" "http://www.w3.org/Graphics/SVG/1.1/DTD/svg11.dtd"><svg t="1645684612587" class="icon" viewBox="0 0 1024 1024" version="1.1" xmlns="http://www.w3.org/2000/svg" p-id="2218" xmlns:xlink="http://www.w3.org/1999/xlink" width="128" height="128"><defs><style type="text/css"></style></defs><path d="M467.7888 237.3888L537.6 307.2l51.2-51.2-55.8592-55.8592L793.6 51.2l128 128-206.6432 280.448A331.264 331.264 0 0 1 768 640c0 183.808-148.992 332.8-332.8 332.8-89.8048 0-171.3152-35.584-231.168-93.4144a51.2 51.2 0 1 1-49.3056-60.16A331.264 331.264 0 0 1 102.4 640a332.544 332.544 0 0 1 154.2912-280.9088L256 358.4l211.7888-121.0112zM435.2 870.4a230.4 230.4 0 1 0 0-460.8 230.4 230.4 0 0 0 0 460.8z m0-51.2a179.2 179.2 0 1 1 0-358.4 179.2 179.2 0 0 1 0 358.4z" p-id="2219"></path></svg>