<?xml version="1.0" standalone="no"?><!DOCTYPE svg PUBLIC "-//W3C//DTD SVG 1.1//EN" "http://www.w3.org/Graphics/SVG/1.1/DTD/svg11.dtd"><svg t="1645684283871" class="icon" viewBox="0 0 1024 1024" version="1.1" xmlns="http://www.w3.org/2000/svg" p-id="4873" xmlns:xlink="http://www.w3.org/1999/xlink" width="128" height="128"><defs><style type="text/css"></style></defs><path d="M897.82 816.1V696.28h-66.25V540.8h-130V364.92h-61.18V247.66h-48.45V150.8H459.4v96.86h-71.38v117.26h-76.47v331.37H163.7V816.1H66.84v56.07H959V816.1h-61.18zM528.2 724.33h-61.17v-35.7h61.17v35.7z m0-91.77h-61.17v-35.7h61.17v35.7z m0-91.76h-61.17v-35.7h61.17v35.7z m0-91.77h-61.17v-35.7h61.17v35.7z m122.35 275.3h-61.18v-35.7h61.18v35.7z m0-91.77h-61.18v-35.7h61.18v35.7z m0-91.76h-61.18v-35.7h61.18v35.7z m0-91.77h-61.18v-35.7h61.18v35.7z m0 0" p-id="4874"></path></svg>