<?xml version="1.0" standalone="no"?><!DOCTYPE svg PUBLIC "-//W3C//DTD SVG 1.1//EN" "http://www.w3.org/Graphics/SVG/1.1/DTD/svg11.dtd"><svg t="1646896842972" class="icon" viewBox="0 0 1096 1024" version="1.1" xmlns="http://www.w3.org/2000/svg" p-id="21923" xmlns:xlink="http://www.w3.org/1999/xlink" width="137" height="128"><defs><style type="text/css"></style></defs><path d="M980.29526 325.508557A382.727224 382.727224 0 0 0 709.56851 213.348376H163.02719l136.892002-137.188602a42.504967 42.504967 0 0 0 0-60.049958l-3.582007-3.650453a42.710305 42.710305 0 0 0-60.300927 0L61.978077 186.951035l-20.693508 20.670692-0.250969 0.250969L4.574697 244.514122a15.560058 15.560058 0 0 0 0 22.039613l52.224299 51.106347 179.054739 179.533862a42.596228 42.596228 0 0 0 60.164035 0h0.136892l3.604823-3.604823a42.459336 42.459336 0 0 0 0-60.049959l-129.636726-130.458078H689.71917a313.870547 313.870547 0 0 1 0 627.741093H72.81536v89.709892H709.56851a382.864116 382.864116 0 0 0 382.864116-382.772854v-41.615169a383.52576 383.52576 0 0 0-112.137366-270.635489z" p-id="21924"></path></svg>