<?xml version="1.0" standalone="no"?><!DOCTYPE svg PUBLIC "-//W3C//DTD SVG 1.1//EN" "http://www.w3.org/Graphics/SVG/1.1/DTD/svg11.dtd"><svg t="1646631113262" class="icon" viewBox="0 0 1024 1024" version="1.1" xmlns="http://www.w3.org/2000/svg" p-id="5464" xmlns:xlink="http://www.w3.org/1999/xlink" width="128" height="128"><defs><style type="text/css"></style></defs><path d="M748.8 832c-32 0-51.2-25.6-51.2-51.2 0-32 25.6-51.2 51.2-51.2 32 0 51.2 25.6 51.2 57.6 0 19.2-19.2 38.4-51.2 44.8z m134.4-281.6l134.4 224-134.4 224H620.8l-128-224 128-224h262.4zM576 774.4l89.6 153.6h179.2l89.6-153.6-89.6-153.6h-179.2L576 774.4z m-358.4 0V704h185.6v70.4H217.6z m0-217.6V486.4h249.6v70.4H217.6z m0-217.6V268.8h582.4v70.4H217.6zM32 665.6v-512c0-57.6 44.8-102.4 102.4-102.4h736c57.6 0 102.4 44.8 102.4 102.4v275.2h-70.4V153.6c0-19.2-12.8-32-32-32H134.4c-19.2 0-32 12.8-32 32v729.6c0 19.2 12.8 32 32 32h275.2v70.4H134.4c-57.6 0-102.4-44.8-102.4-102.4v-217.6z" fill="#cdcdcd" p-id="5465"></path></svg>