<?xml version="1.0" standalone="no"?><!DOCTYPE svg PUBLIC "-//W3C//DTD SVG 1.1//EN" "http://www.w3.org/Graphics/SVG/1.1/DTD/svg11.dtd"><svg t="1645684798780" class="icon" viewBox="0 0 1024 1024" version="1.1" xmlns="http://www.w3.org/2000/svg" p-id="5567" xmlns:xlink="http://www.w3.org/1999/xlink" width="128" height="128"><defs><style type="text/css"></style></defs><path d="M376.6528 627.2a141.2608 141.2608 0 0 0 75.4432 87.9104 145.408 145.408 0 0 0 62.5664 14.0032c16.0768 0 31.744-2.56 46.592-7.552a141.824 141.824 0 0 0 91.4176-94.3616h-15.7952a38.4 38.4 0 1 1 0-76.8h85.1456a158.208 158.208 0 0 1 153.2672 117.6832l47.5392 141.568 0.8448 2.8416c21.2736 84.48-30.4384 169.984-115.3024 191.0528-12.544 3.0976-25.4208 4.6848-38.3488 4.6848H247.9872C160.5888 1008.2304 89.6 937.7792 89.6 850.7648c0-12.9024 1.5872-25.7536 4.736-38.272l0.8448-2.8416 47.5648-141.568A158.208 158.208 0 0 1 295.9872 550.4h89.7792a38.4 38.4 0 0 1 0 76.8h-9.1136z m-78.7968 0h-1.8688a81.408 81.408 0 0 0-79.1808 61.184l-0.8192 2.816-47.488 141.3632a79.7952 79.7952 0 0 0-2.0992 18.176c0 44.4928 36.4544 80.6912 81.5872 80.6912H770.048c6.7072 0 13.3632-0.8192 19.8656-2.432 43.264-10.752 69.632-53.76 59.648-96.4352L802.048 691.2l-0.8448-2.8416a81.3056 81.3056 0 0 0-69.8112-60.672c-14.1824 77.0048-69.76 141.184-145.7408 166.656-22.6816 7.6032-46.592 11.52-70.9888 11.52a222.1824 222.1824 0 0 1-95.488-21.4016c-63.8976-30.336-108.928-88.96-121.344-157.2864z m218.9056-118.4768c-136.96 0-247.9616-111.0016-247.9616-247.9616S379.8272 12.8 516.7616 12.8c136.96 0 247.9616 111.0272 247.9616 247.9616 0 136.96-111.0016 247.9616-247.9616 247.9616z m0-76.8a171.1616 171.1616 0 1 0 0-342.3232 171.1616 171.1616 0 0 0 0 342.3232z" p-id="5568"></path></svg>