<?xml version="1.0" standalone="no"?><!DOCTYPE svg PUBLIC "-//W3C//DTD SVG 1.1//EN" "http://www.w3.org/Graphics/SVG/1.1/DTD/svg11.dtd"><svg t="1645685144572" class="icon" viewBox="0 0 1024 1024" version="1.1" xmlns="http://www.w3.org/2000/svg" p-id="9760" xmlns:xlink="http://www.w3.org/1999/xlink" width="128" height="128"><defs><style type="text/css"></style></defs><path d="M704 371.2H320c-38.4 0-64-25.6-64-64v-128c0-38.4 25.6-64 64-64h384c38.4 0 64 25.6 64 64v128c0 32-25.6 64-64 64zM576 915.2H448c-38.4 0-64-25.6-64-64v-128c0-38.4 25.6-64 64-64h128c38.4 0 64 25.6 64 64v128c0 38.4-25.6 64-64 64zM953.6 915.2h-128c-38.4 0-64-25.6-64-64v-128c0-38.4 25.6-64 64-64h128c38.4 0 64 25.6 64 64v128c0 38.4-32 64-64 64zM204.8 915.2h-128c-38.4 0-64-25.6-64-64v-128c0-38.4 25.6-64 64-64h128c38.4 0 64 25.6 64 64v128c0 38.4-25.6 64-64 64z" p-id="9761"></path><path d="M928 768h-64V576c0-12.8-12.8-32-32-32H204.8c-12.8 0-32 19.2-32 32v192h-64V576c0-51.2 44.8-96 96-96H832c51.2 0 96 44.8 96 96v192z" p-id="9762"></path><path d="M486.4 345.6h64v320h-64z" p-id="9763"></path></svg>